<svg id="Layer_1" data-name="Layer 1" xmlns="http://www.w3.org/2000/svg" viewBox="0 0 495.78 162.17"><defs><style>.cls-1{fill:#2bb673;}</style></defs><title>ESC_Logo_White</title><path class="cls-1" d="M479.57,4.62h-4.65V17.7H472V4.62h-4.65V2.26h12.18Z" transform="translate(-2.55)"/><path class="cls-1" d="M498.34,2.26V17.7h-2.53v-10q0-.6.06-1.29l-4.67,8.77a1.08,1.08,0,0,1-1,.63h-.4a1.08,1.08,0,0,1-1-.63l-4.72-8.8c0,.24,0,.47.05.69s0,.44,0,.63v10H481.6V2.26h2.5a.91.91,0,0,1,.25.05.55.55,0,0,1,.2.14,1.13,1.13,0,0,1,.18.26l4.62,8.57c.12.23.23.46.34.7s.21.49.3.75c.1-.26.2-.52.31-.76s.22-.48.34-.71l4.56-8.55a1,1,0,0,1,.18-.26.6.6,0,0,1,.21-.14.91.91,0,0,1,.25-.05h2.5Z" transform="translate(-2.55)"/><path class="cls-1" d="M345,154.35a1,1,0,0,1,.78.37l1.82,2.52a16.82,16.82,0,0,1-5.47,3.66,18.18,18.18,0,0,1-7,1.27A14.28,14.28,0,0,1,329,161a10.56,10.56,0,0,1-4.14-3.35,11.63,11.63,0,0,1-2-5.13,18.53,18.53,0,0,1,.23-6.51,21,21,0,0,1,2.43-6.54,19.88,19.88,0,0,1,4.22-5.12,18.94,18.94,0,0,1,5.6-3.34,18.18,18.18,0,0,1,6.59-1.19,14,14,0,0,1,5.92,1.14,11.12,11.12,0,0,1,4,3l-2.51,2.74a2.45,2.45,0,0,1-.54.46,1.47,1.47,0,0,1-.79.2,1.25,1.25,0,0,1-.64-.19,7.2,7.2,0,0,1-.67-.46q-.36-.27-.84-.6a6.26,6.26,0,0,0-1.15-.6,8.72,8.72,0,0,0-1.58-.46,11.61,11.61,0,0,0-6.2.57,11.08,11.08,0,0,0-3.47,2.19,13.21,13.21,0,0,0-2.67,3.5A16.87,16.87,0,0,0,329.1,146a13.38,13.38,0,0,0-.19,4.75,8.29,8.29,0,0,0,1.35,3.5,6.6,6.6,0,0,0,2.61,2.18,8.38,8.38,0,0,0,3.62.76,17.17,17.17,0,0,0,2.21-.13,10.5,10.5,0,0,0,1.88-.42,10,10,0,0,0,1.7-.73,13,13,0,0,0,1.67-1.11,2.79,2.79,0,0,1,.52-.32A1.28,1.28,0,0,1,345,154.35Z" transform="translate(-2.55)"/><path class="cls-1" d="M384.6,161.82H380a1.65,1.65,0,0,1-1.17-.38,1.83,1.83,0,0,1-.53-1L377.25,154H364.13l-3.65,6.46a2.8,2.8,0,0,1-.86.92,2.24,2.24,0,0,1-1.33.42h-4.6l18.74-31.67h6Zm-8-12-1.77-10.54q-.15-.7-.26-1.67t-.2-2.08q-.51,1.12-1,2.09t-.93,1.7l-5.91,10.49Z" transform="translate(-2.55)"/><path class="cls-1" d="M419.32,161.82H414a1.86,1.86,0,0,1-2-1.18l-4.65-10.14a1.76,1.76,0,0,0-.66-.81,2.58,2.58,0,0,0-1.28-.24h-2.52l-2.45,12.38h-5.89l6.28-31.67h9.66a18.66,18.66,0,0,1,5.4.67,8.32,8.32,0,0,1,3.42,1.87,5.63,5.63,0,0,1,1.61,2.88,9,9,0,0,1,0,3.69,11,11,0,0,1-1.07,3,11.42,11.42,0,0,1-1.87,2.58,12.23,12.23,0,0,1-2.59,2,13.65,13.65,0,0,1-3.24,1.38,4.39,4.39,0,0,1,.9.78,4.22,4.22,0,0,1,.67,1.06Zm-11.87-16.6a9.92,9.92,0,0,0,3-.42,7.17,7.17,0,0,0,2.26-1.15,6.14,6.14,0,0,0,1.54-1.74,7,7,0,0,0,.83-2.21,3.81,3.81,0,0,0-.85-3.7q-1.33-1.29-4.6-1.29h-3.77l-2.08,10.51Z" transform="translate(-2.55)"/><path class="cls-1" d="M440.72,134.83,439,143.61h11.08l-.9,4.53H438.08l-1.78,9h14.06l-.93,4.71h-20l6.28-31.67h20l-.93,4.69Z" transform="translate(-2.55)"/><path class="cls-1" d="M48.42,29.33c-26.52,0-45.87,22.78-45.87,49C2.55,98,16.75,112,39.84,112c17,0,30.11-10.3,30.11-10.3l-4.37-12S54,98.91,40.46,98.91C25.64,98.91,18,89.24,18,77.53a23.84,23.84,0,0,1,.47-4.68H76s2.5-8,2.5-14.35C78.53,41.5,68.85,29.33,48.42,29.33ZM63.08,61.47H21C25.8,49,36.56,41.34,48.11,41.34c8.89,0,15.29,5.3,15.29,15.91A26,26,0,0,1,63.08,61.47Z" transform="translate(-2.55)"/><path class="cls-1" d="M150,31.2,120.49,84.87c-2.34,4.37-5,10.76-5,10.76h-.31s-.31-7.49-.78-10.76L105.82,31.2h-15l14,78.94h16.69L166.2,31.2Z" transform="translate(-2.55)"/><path class="cls-1" d="M214.09,29.33c-24.8,0-48.83,20.75-48.83,47.89,0,20.59,15.44,34.79,37.6,34.79,24.34,0,48.67-20.75,48.67-48.21C251.53,43.37,236.09,29.33,214.09,29.33ZM203,98.91c-13.1,0-22.31-9-22.31-22.31,0-19.34,16.54-34.17,33.23-34.17,12.95,0,22.15,9,22.15,22.15C236.09,84.09,219.24,98.91,203,98.91Z" transform="translate(-2.55)"/><path class="cls-1" d="M286.16,110.45,289,97a19.61,19.61,0,0,1-2.5.16c-3.28,0-7-.62-7-6.4a29.54,29.54,0,0,1,.78-5.93L296.61,0H281.48l-17,87.52a38.6,38.6,0,0,0-.78,6.71c0,13.42,9.67,16.54,17.94,16.54A36.21,36.21,0,0,0,286.16,110.45Z" transform="translate(-2.55)"/><path class="cls-1" d="M336.7,110.14,381.32,31.2H365.09L335.61,84.87c-2.34,4.37-5,10.76-5,10.76h-.31s-.31-7.49-.78-10.76L320.94,31.2H306l14,78.94Z" transform="translate(-2.55)"/><path class="cls-1" d="M417.82,112c17,0,30.11-10.3,30.11-10.3l-4.37-12s-11.54,9.2-25.12,9.2c-14.82,0-22.46-9.67-22.46-21.37a23.77,23.77,0,0,1,.47-4.68H454s2.5-8,2.5-14.35c0-17-9.67-29.17-30.11-29.17-26.52,0-45.87,22.78-45.87,49C380.54,98,394.73,112,417.82,112Zm8.27-70.67c8.89,0,15.29,5.3,15.29,15.91a26,26,0,0,1-.31,4.21H398.94C403.78,49,414.55,41.34,426.09,41.34Z" transform="translate(-2.55)"/></svg>